# Blender v2.79 (sub 0) OBJ File: ''
# www.blender.org
mtllib mesa3.mtl
o Platte
v 43.540985 60.219536 66.733627
v 43.540985 63.219536 66.733627
v -40.459015 63.219536 66.733627
v -40.459015 60.219536 66.733627
v -40.459015 60.219543 -65.266373
v -40.459015 63.219543 -65.266373
v 43.540985 63.219543 -65.266373
v 43.540985 60.219543 -65.266373
v 37.540985 1.708988 -50.266380
v 37.540985 61.708992 -50.266380
v 31.540985 61.708992 -50.266380
v 31.540985 1.708988 -50.266380
v 37.540985 1.708988 -56.266380
v 37.540985 61.708992 -56.266380
v 31.540985 1.708988 -56.266380
v 31.540985 61.708992 -56.266380
v -28.459019 1.708988 -50.266380
v -28.459019 61.708992 -50.266380
v -34.459015 61.708992 -50.266380
v -34.459015 1.708988 -50.266380
v -28.459019 1.708988 -56.266380
v -28.459019 61.708992 -56.266380
v -34.459015 1.708988 -56.266380
v -34.459015 61.708992 -56.266380
v 37.540985 1.708984 57.733627
v 37.540985 61.708988 57.733627
v 31.540985 61.708988 57.733627
v 31.540985 1.708984 57.733627
v 37.540985 1.708984 51.733627
v 37.540985 61.708988 51.733627
v 31.540985 1.708984 51.733627
v 31.540985 61.708988 51.733627
v -28.459019 1.708984 57.733627
v -28.459019 61.708988 57.733627
v -34.459015 61.708988 57.733627
v -34.459015 1.708984 57.733627
v -28.459019 1.708984 51.733627
v -28.459019 61.708988 51.733627
v -34.459015 1.708984 51.733627
v -34.459015 61.708988 51.733627
v 4.540983 46.708988 54.733627
v 4.540983 52.708984 54.733627
v -1.459017 52.708984 54.733627
v -1.459017 46.708988 54.733627
v 4.540983 46.708992 -53.266380
v 4.540983 52.708992 -53.266380
v -1.459017 46.708992 -53.266380
v -1.459017 52.708992 -53.266380
v 31.540985 46.708984 57.382050
v 31.540985 52.708984 57.382050
v -28.459019 52.708984 57.382050
v -28.459019 46.708984 57.382050
v 31.540985 46.708988 51.382050
v 31.540985 52.708984 51.382050
v -28.459019 46.708988 51.382050
v -28.459019 52.708984 51.382050
v 31.540985 46.708992 -50.211685
v 31.540985 52.708992 -50.211685
v -28.459019 52.708992 -50.211685
v -28.459019 46.708992 -50.211685
v 31.540985 46.708992 -56.211685
v 31.540985 52.708992 -56.211685
v -28.459019 46.708992 -56.211685
v -28.459019 52.708992 -56.211685
vn 0.0000 0.0000 1.0000
vn 0.0000 0.0000 -1.0000
vn 0.0000 1.0000 0.0000
vn 0.0000 -1.0000 -0.0000
vn 1.0000 0.0000 0.0000
vn -1.0000 0.0000 0.0000
usemtl Mat
s 1
f 2//1 4//1 1//1
f 6//2 8//2 5//2
f 7//3 3//3 2//3
f 1//4 5//4 8//4
f 10//1 12//1 9//1
f 14//5 9//5 13//5
f 16//2 13//2 15//2
f 11//6 15//6 12//6
f 14//3 11//3 10//3
f 9//4 15//4 13//4
f 18//1 20//1 17//1
f 22//5 17//5 21//5
f 24//2 21//2 23//2
f 19//6 23//6 20//6
f 22//3 19//3 18//3
f 17//4 23//4 21//4
f 26//1 28//1 25//1
f 30//5 25//5 29//5
f 32//2 29//2 31//2
f 27//6 31//6 28//6
f 30//3 27//3 26//3
f 25//4 31//4 29//4
f 34//1 36//1 33//1
f 38//5 33//5 37//5
f 40//2 37//2 39//2
f 35//6 39//6 36//6
f 38//3 35//3 34//3
f 33//4 39//4 37//4
f 46//3 43//3 42//3
f 41//4 47//4 45//4
f 2//1 3//1 4//1
f 6//2 7//2 8//2
f 7//3 6//3 3//3
f 1//4 4//4 5//4
f 10//1 11//1 12//1
f 14//5 10//5 9//5
f 16//2 14//2 13//2
f 11//6 16//6 15//6
f 14//3 16//3 11//3
f 9//4 12//4 15//4
f 18//1 19//1 20//1
f 22//5 18//5 17//5
f 24//2 22//2 21//2
f 19//6 24//6 23//6
f 22//3 24//3 19//3
f 17//4 20//4 23//4
f 26//1 27//1 28//1
f 30//5 26//5 25//5
f 32//2 30//2 29//2
f 27//6 32//6 31//6
f 30//3 32//3 27//3
f 25//4 28//4 31//4
f 34//1 35//1 36//1
f 38//5 34//5 33//5
f 40//2 38//2 37//2
f 35//6 40//6 39//6
f 38//3 40//3 35//3
f 33//4 36//4 39//4
f 46//3 48//3 43//3
f 41//4 44//4 47//4
usemtl Mat.1
f 7//5 1//5 8//5
f 3//6 5//6 4//6
f 42//1 44//1 41//1
f 46//5 41//5 45//5
f 48//2 45//2 47//2
f 43//6 47//6 44//6
f 50//1 52//1 49//1
f 54//5 49//5 53//5
f 56//2 53//2 55//2
f 51//6 55//6 52//6
f 54//3 51//3 50//3
f 49//4 55//4 53//4
f 58//1 60//1 57//1
f 62//5 57//5 61//5
f 64//2 61//2 63//2
f 59//6 63//6 60//6
f 62//3 59//3 58//3
f 57//4 63//4 61//4
f 7//5 2//5 1//5
f 3//6 6//6 5//6
f 42//1 43//1 44//1
f 46//5 42//5 41//5
f 48//2 46//2 45//2
f 43//6 48//6 47//6
f 50//1 51//1 52//1
f 54//5 50//5 49//5
f 56//2 54//2 53//2
f 51//6 56//6 55//6
f 54//3 56//3 51//3
f 49//4 52//4 55//4
f 58//1 59//1 60//1
f 62//5 58//5 57//5
f 64//2 62//2 61//2
f 59//6 64//6 63//6
f 62//3 64//3 59//3
f 57//4 60//4 63//4
